<?xml version="1.0" standalone="no"?>
<!DOCTYPE svg PUBLIC "-//W3C//DTD SVG 1.1//EN" "http://www.w3.org/Graphics/SVG/1.1/DTD/svg11.dtd" >
<svg xmlns="http://www.w3.org/2000/svg">
<metadata></metadata>
<defs>
<font id="solomon_thinregular" horiz-adv-x="1271" >
<font-face units-per-em="2048" ascent="1536" descent="-512" />
<missing-glyph horiz-adv-x="575" />
<glyph unicode="&#xfb01;" horiz-adv-x="1009" d="M111 995v43h114v136q0 74 20.5 127t58.5 81.5t85 41t107 12.5v-41q-118 -2 -172 -52.5t-54 -168.5v-136h545v-1038h-45v995h-500v-995h-45v995h-114zM766 1346v88h57v-88h-57z" />
<glyph unicode="&#xfb02;" horiz-adv-x="1046" d="M111 995v43h114v136q0 74 20.5 127t58.5 81.5t85 41t107 12.5v-41q-118 -2 -172 -52.5t-54 -168.5v-136h217v-43h-217v-995h-45v995h-114zM760 236v1198h45v-1198q0 -105 41.5 -152t134.5 -47v-39q-110 0 -165.5 55t-55.5 183z" />
<glyph unicode="&#xfb03;" horiz-adv-x="1617" d="M115 999v39h114v136q0 74 20.5 127t58.5 81.5t85 41t107 12.5v-41q-118 -2 -172 -52.5t-54 -168.5v-136h541v136q0 74 20.5 127t58.5 81.5t84.5 41t106.5 12.5v-41q-118 -2 -171.5 -52.5t-53.5 -168.5v-136h547v-1038h-45v999h-502v-999h-45v999h-541v-999h-45v999h-114z M1358 1323v111h57v-111h-57z" />
<glyph unicode="&#xfb04;" horiz-adv-x="1679" d="M111 999v39h114v136q0 74 20.5 127t58.5 81.5t85 41t107 12.5v-41q-118 -2 -172 -52.5t-54 -168.5v-136h551v136q0 74 20.5 127t58.5 81.5t85 41t107 12.5v-41q-118 -2 -172 -52.5t-54 -168.5v-136h217v-39h-217v-999h-45v999h-551v-999h-45v999h-114zM1378 236v1198h45 v-1198q0 -105 41.5 -152t134.5 -47v-39q-110 0 -165.5 55t-55.5 183z" />
<glyph horiz-adv-x="2048" />
<glyph horiz-adv-x="2048" />
<glyph unicode="&#xd;" horiz-adv-x="2048" />
<glyph unicode=" "  horiz-adv-x="575" />
<glyph unicode="&#x09;" horiz-adv-x="575" />
<glyph unicode="&#xa0;" horiz-adv-x="575" />
<glyph unicode="!" horiz-adv-x="632" d="M293 -4v96h53v-96h-53zM297 305v1129h43v-1129h-43z" />
<glyph unicode="&#x22;" horiz-adv-x="595" d="M166 1075v359h41v-359h-41zM373 1075v359h41v-359h-41z" />
<glyph unicode="#" horiz-adv-x="1144" d="M90 481v35h213l66 414h-209v33h215l78 473h41l-78 -473h370l78 473h39l-78 -473h193v-33h-199l-67 -414h194v-35h-201l-77 -481h-39l80 481h-373l-78 -481h-41l80 481h-207zM342 516h373l65 414h-370z" />
<glyph unicode="$" horiz-adv-x="1124" d="M150 223l38 23q53 -106 147 -159.5t206 -55.5q155 -2 254 78.5t106 220.5q3 73 -17.5 135.5t-54.5 105.5t-82.5 77.5t-94 55t-97.5 35.5q-54 15 -100.5 34t-95.5 51t-83 71.5t-55.5 96.5t-19.5 124q6 151 105 237.5t237 92.5v178h35v-176q219 -7 325 -184l-39 -19 q-56 87 -127.5 123.5t-169.5 36.5q-82 1 -151 -28t-116.5 -96.5t-53.5 -164.5q-1 -64 20.5 -117.5t52.5 -87.5t79 -62t85 -42.5t86 -28.5q75 -22 139 -55.5t122.5 -86.5t90 -132.5t25.5 -177.5q-4 -81 -37 -145.5t-86.5 -104t-115.5 -61.5t-129 -27v-156h-35v154h-2 q-125 0 -229 60.5t-162 176.5z" />
<glyph unicode="%" horiz-adv-x="1581" d="M158 1147q0 126 86 211.5t207 85.5t206.5 -85.5t85.5 -211.5q0 -121 -86 -208t-206 -87q-121 0 -207 85t-86 210zM201 1147q0 -107 72 -181.5t178 -74.5q108 0 179.5 74.5t71.5 181.5q0 109 -71.5 183.5t-179.5 74.5q-107 0 -178.5 -74.5t-71.5 -183.5zM311 -23 q132 224 436 720.5t463 768.5h50q-132 -224 -436 -720.5t-462 -768.5h-51zM817 283q0 126 86 211.5t207 85.5t207 -85.5t86 -211.5q0 -121 -86.5 -208t-206.5 -87q-121 0 -207 85t-86 210zM860 283q0 -107 72 -181.5t178 -74.5q108 0 180 74.5t72 181.5q0 109 -72 183.5 t-180 74.5q-107 0 -178.5 -74.5t-71.5 -183.5z" />
<glyph unicode="&#x26;" horiz-adv-x="1304" d="M154 356q0 122 83 243t242 200q-38 45 -63 77.5t-54.5 79t-44 93t-14.5 92.5q0 77 25 137.5t67.5 96.5t94 54.5t108.5 18.5q72 0 135 -30.5t106.5 -97.5t43.5 -159q0 -62 -28.5 -118.5t-81.5 -104.5t-104.5 -82.5t-121.5 -73.5l393 -458l125 204l33 -18l-131 -215 l231 -270h-45l-209 237q-106 -136 -199 -205t-206 -69q-101 0 -188 44t-142 129.5t-55 194.5zM197 356q0 -100 50 -175.5t128 -112.5t170 -37q178 0 375 262l-412 475q-131 -59 -221 -176.5t-90 -235.5zM346 1143q0 -141 176 -334q47 24 83.5 45.5t83 56.5t77.5 70t52.5 82 t21.5 96q0 116 -68.5 182t-173.5 66q-115 0 -183.5 -72.5t-68.5 -191.5z" />
<glyph unicode="'" horiz-adv-x="362" d="M152 1065v373h41v-373h-41z" />
<glyph unicode="(" horiz-adv-x="778" d="M199 721q0 285 139 548.5t362 393.5v-43q-140 -92 -245 -243t-157 -320.5t-52 -335.5q0 -171 57 -345t164.5 -324t247.5 -242v-48q-152 92 -269.5 245t-182 339t-64.5 375z" />
<glyph unicode=")" horiz-adv-x="776" d="M63 -190q140 92 247.5 242t164.5 324t57 345q0 166 -52 335.5t-157 320.5t-245 243v43q223 -130 362.5 -393.5t139.5 -548.5q0 -189 -65 -375t-182.5 -339t-269.5 -245v48z" />
<glyph unicode="*" horiz-adv-x="829" d="M119 1180l10 32l285 -96l-2 316h34l-2 -316l295 98l11 -32l-295 -95l196 -264l-28 -20l-195 262l-188 -260l-31 18l197 264z" />
<glyph unicode="+" horiz-adv-x="1224" d="M182 657v41h402v408h43v-408h399v-41h-399v-421h-43v421h-402z" />
<glyph unicode="," horiz-adv-x="440" d="M113 -229l108 317h55l-124 -317h-39z" />
<glyph unicode="-" horiz-adv-x="917" d="M207 618v46h504v-46h-504z" />
<glyph unicode="." horiz-adv-x="440" d="M193 0v92h69v-92h-69z" />
<glyph unicode="/" horiz-adv-x="806" d="M121 -111l579 1680h43l-577 -1680h-45z" />
<glyph unicode="0" horiz-adv-x="1228" d="M186 373v692q0 89 36 163t95.5 121t134 72.5t154.5 26.5q83 2 161 -22.5t140 -71.5t99.5 -122t37.5 -167v-692q2 -117 -59 -207t-158 -135t-211 -45q-115 -2 -212.5 42t-159 135t-58.5 210zM229 373q0 -83 33.5 -150t89 -108.5t123.5 -63.5t141 -22q71 0 138.5 22 t123.5 63.5t89.5 108.5t33.5 150v692q0 81 -35 148t-92 108.5t-126 64t-140 21.5q-97 -1 -181.5 -39t-141 -117.5t-56.5 -185.5v-692z" />
<glyph unicode="1" horiz-adv-x="614" d="M147 1393v41h203v-1434h-43v1393h-160z" />
<glyph unicode="2" horiz-adv-x="1144" d="M154 43q98 110 312.5 364t324.5 377q59 65 91.5 144t32.5 155q0 136 -87.5 227t-252.5 91q-232 9 -348 -203q-30 17 -34 21q113 223 380 223q121 0 211 -51t133.5 -131.5t43.5 -176.5q0 -84 -37 -170.5t-107 -162.5l-614 -711h801v-39h-818z" />
<glyph unicode="3" horiz-adv-x="1124" d="M147 213l33 23q123 -205 361 -205q64 0 128 24.5t117.5 69t87 117t33.5 159.5q0 149 -102 254t-238 105h-96v41h96q127 0 215 78.5t88 214.5q0 101 -49.5 174t-124 106t-161.5 33q-89 0 -177 -43t-137 -117l-31 21q53 87 147.5 133.5t199.5 46.5q71 0 137.5 -23t120 -66 t86 -112t32.5 -153q0 -43 -11.5 -87t-36 -89.5t-71.5 -82.5t-110 -57q92 -31 155 -96.5t88 -136.5t25 -146q-1 -93 -37 -172t-95 -130t-132 -80t-149 -29q-259 0 -392 225z" />
<glyph unicode="4" horiz-adv-x="1089" d="M90 385l678 1051h72v-1053h127v-41h-127v-342h-43v342h-678zM135 383h662v1022z" />
<glyph unicode="5" horiz-adv-x="1171" d="M166 199l31 26q65 -93 165.5 -144.5t210.5 -51.5q80 0 148 24t115.5 65.5t81.5 96.5t50 117.5t15 128.5q0 74 -26 144.5t-75 128t-127.5 93t-174.5 35.5q-99 0 -179 -22t-170 -74h-12l94 668h621v-41h-586l-80 -564q87 46 159.5 61t156.5 15q83 -1 156 -27t125 -69.5 t89 -100t55.5 -120t18.5 -127.5q0 -132 -52.5 -238t-158.5 -170.5t-248 -64.5q-116 0 -228 57t-175 154z" />
<glyph unicode="6" horiz-adv-x="1185" d="M145 451q0 142 78 268q73 117 223 357.5t224 357.5h49l-395 -631q71 62 132 80t132 18q109 0 196.5 -40t140 -105.5t80 -144t27.5 -160.5q0 -68 -18 -134t-55.5 -125.5t-89 -104t-124.5 -71t-157 -26.5q-104 0 -189.5 39.5t-140 104.5t-84 147t-29.5 170zM190 453 q0 -78 26 -152.5t74.5 -135.5t126 -98.5t171.5 -37.5t172.5 38.5t127 100t74.5 136t25 149.5q0 71 -26.5 142.5t-75 131.5t-126.5 97.5t-171 37.5q-162 0 -279 -122t-119 -287z" />
<glyph unicode="7" horiz-adv-x="985" d="M88 1391v43h807l27 -37l-711 -1397h-51l710 1391h-782z" />
<glyph unicode="8" horiz-adv-x="1181" d="M170 389q-1 54 17 112.5t53 113.5t94.5 98t132.5 61q-119 47 -180.5 135.5t-61.5 190.5q0 83 31 151t82.5 111t115.5 66.5t132 23.5q67 0 130 -23t114 -65.5t81.5 -110.5t30.5 -151q0 -60 -22.5 -121.5t-78.5 -120t-136 -84.5q80 -23 140.5 -66.5t95 -97t51.5 -110 t16 -113.5q-1 -92 -37.5 -170.5t-96.5 -130t-135 -80t-153 -28.5t-151.5 27t-132.5 77t-95 129.5t-37 175.5zM213 387q0 -69 25 -134.5t70.5 -118t118 -84t159.5 -30.5q116 1 204.5 55.5t131.5 137.5t43 178q0 66 -26 130.5t-72.5 117t-120 85t-160.5 32.5 q-86 0 -158.5 -33.5t-118 -87.5t-71 -118.5t-25.5 -129.5zM268 1102q0 -53 22 -107t61.5 -99.5t101 -74t133.5 -28.5q73 0 134 28.5t99 74t59 99.5t21 107q0 123 -84 216t-229 93q-144 0 -231 -92t-87 -217z" />
<glyph unicode="9" horiz-adv-x="1218" d="M145 985q0 86 29.5 167.5t84 147.5t141 106t190.5 40t189.5 -39.5t139.5 -105t83.5 -147t29.5 -169.5q0 -145 -76 -268q-74 -117 -224.5 -358.5t-223.5 -358.5h-49l395 633q-71 -62 -132 -80t-132 -18q-109 0 -196.5 40t-140.5 105.5t-80.5 144t-27.5 160.5zM190 983 q0 -57 16.5 -114t50 -110.5t80 -95t112.5 -66t141 -24.5q162 0 278.5 122.5t118.5 287.5q0 78 -26 152.5t-74.5 135.5t-125.5 98.5t-171 37.5t-172.5 -38.5t-127 -100t-75 -136t-25.5 -149.5z" />
<glyph unicode=":" horiz-adv-x="581" d="M258 0v92h70v-92h-70zM258 915v93h70v-93h-70z" />
<glyph unicode=";" horiz-adv-x="600" d="M158 -229l108 317h56l-125 -317h-39zM258 915v93h70v-93h-70z" />
<glyph unicode="&#x3c;" horiz-adv-x="1013" d="M109 565v39l749 400v-52l-702 -366l702 -359v-51z" />
<glyph unicode="=" horiz-adv-x="1265" d="M225 346v41h813v-41h-813zM225 748v40h813v-40h-813z" />
<glyph unicode="&#x3e;" horiz-adv-x="1011" d="M141 176v51l703 357l-703 368v52l750 -400v-39z" />
<glyph unicode="?" horiz-adv-x="1030" d="M123 1305q116 141 332 141q162 0 289 -114.5t126 -289.5q-1 -168 -113 -278.5t-302 -138.5q-1 -51 -2 -183.5t-2 -183.5h-39v401q83 8 156.5 36t132.5 75t93 118t33 156q-1 83 -34.5 153t-86.5 114.5t-118 69t-133 24.5q-196 0 -301 -127zM410 -2v98h51v-98h-51z" />
<glyph unicode="@" horiz-adv-x="1617" d="M147 444q2 106 33.5 210t92.5 195.5t143.5 161.5t195 111t238.5 41q269 0 445.5 -157t179.5 -398q2 -133 -50.5 -260.5t-150 -206.5t-211.5 -65q-46 5 -72 40t-16 105h-6q-43 -67 -117.5 -109t-153.5 -38q-94 5 -163.5 86.5t-69.5 199.5q0 135 47.5 245t142.5 177.5 t222 67.5q26 0 56 -7.5t66.5 -25.5t62.5 -58t32 -97l43 122h41l-152 -491q-16 -50 -16 -88q0 -88 92 -88q91 0 168.5 73t120.5 186t43 232q0 171 -97 297l9 -10q-83 107 -215 166t-277 59q-119 0 -224.5 -38t-184 -103.5t-136 -151.5t-87.5 -184t-32 -199 q-1 -99 19.5 -188.5t68 -169.5t118 -138t175 -92t232.5 -34q99 0 190 39l15 -37q-98 -39 -205 -39q-135 0 -246 35.5t-186.5 97t-127 145.5t-74.5 179.5t-22 201.5zM508 360q0 -95 56.5 -168t142.5 -73q157 0 262 155q59 146 96 320q0 99 -51.5 156t-145.5 57 q-72 1 -133 -24.5t-102 -69t-70 -102t-42 -122t-13 -129.5z" />
<glyph unicode="A" d="M76 0l520 1440h82l524 -1440h-49l-186 508h-662l-180 -508h-49zM322 551h632l-305 850h-24z" />
<glyph unicode="B" horiz-adv-x="1226" d="M254 0v1434h373q158 0 263 -99t105 -248q0 -36 -11 -78.5t-36.5 -93t-78 -92.5t-124.5 -61q66 -15 120.5 -47.5t90 -72t59.5 -85.5q25 -47 35 -89q10 -39 9 -74v-7q0 -174 -123 -280.5t-311 -106.5h-371zM299 43h328q93 0 169 29t123 77.5t72 109.5t25 128 q0 60 -25.5 121.5t-72.5 114t-123 85.5t-168 33h-328v-698zM299 782h328q78 0 142 28t102.5 73.5t59.5 98t21 105.5t-21 105.5t-59.5 97.5t-102.5 73t-142 28h-328v-609z" />
<glyph unicode="C" horiz-adv-x="1472" d="M115 711q0 147 48.5 279t137 234t225.5 162t303 60q154 0 269.5 -50t212.5 -153l-27 -29q-92 94 -196 142.5t-259 48.5q-193 0 -345 -85.5t-238 -244t-86 -364.5q0 -142 48.5 -267t135 -217t212.5 -145t273 -53q140 0 267.5 57.5t220.5 169.5l31 -27q-98 -119 -231 -181 t-288 -62q-161 0 -296.5 58t-226 156.5t-141 230.5t-50.5 280z" />
<glyph unicode="D" horiz-adv-x="1464" d="M254 0v1434h387q146 0 267.5 -49.5t200.5 -132.5t134 -191t67 -227q6 -60 6 -119t-6 -119q-12 -118 -67.5 -225.5t-134.5 -190.5t-201 -131.5t-268 -48.5h-385zM299 43h338h6q135 0 247 45q115 46 189.5 123.5t126.5 178.5q50 102 62 214q6 56 6 111.5t-6 111.5 q-12 112 -63 213.5t-125 180t-188.5 124.5t-250.5 46h-342v-1348z" />
<glyph unicode="E" horiz-adv-x="1058" d="M248 0v1434h702v-43h-655v-652h647v-41h-649v-655h657v-43h-702z" />
<glyph unicode="F" horiz-adv-x="1040" d="M256 0v1434h678v-41h-635v-658h627v-41h-627v-694h-43z" />
<glyph unicode="G" horiz-adv-x="1660" d="M127 715q0 111 30.5 218t91 199t144 162t197 110t241.5 40q329 0 533 -217l-31 -27q-189 203 -502 203q-146 0 -271.5 -57.5t-209 -153t-131 -219.5t-47.5 -258q0 -127 47.5 -249t131 -218t209.5 -154.5t271 -58.5q112 0 217.5 37.5t192 107.5t144 179.5t69.5 242.5h-666 v41h715q-9 -138 -62 -258t-140 -207t-208.5 -136.5t-261.5 -49.5q-159 0 -293.5 62t-222.5 164.5t-137.5 231.5t-50.5 265z" />
<glyph unicode="H" horiz-adv-x="1380" d="M252 0v1434h45v-697h788v697h45v-1434h-45v694h-788v-694h-45z" />
<glyph unicode="I" horiz-adv-x="555" d="M256 0v1434h45v-1434h-45z" />
<glyph unicode="J" horiz-adv-x="1095" d="M100 287l39 12q81 -268 357 -268q130 0 229.5 92.5t99.5 245.5v1024h-321v41h366v-1065q0 -90 -32.5 -164t-86 -120.5t-119.5 -71.5t-136 -25q-147 0 -247.5 68t-148.5 231z" />
<glyph unicode="K" horiz-adv-x="1269" d="M256 0v1434h45v-822l772 822h55l-583 -629l612 -805h-51l-592 774l-213 -217v-557h-45z" />
<glyph unicode="L" horiz-adv-x="958" d="M256 0v1434h45v-1393h604v-41h-649z" />
<glyph unicode="M" horiz-adv-x="1681" d="M219 0v1434h82l524 -1160l525 1160h82v-1434h-46v1403h-2l-528 -1167h-61l-529 1167h-2v-1403h-45z" />
<glyph unicode="N" horiz-adv-x="1472" d="M256 0v1436h82l838 -1411h4v1409h45v-1436h-84l-836 1409h-4v-1407h-45z" />
<glyph unicode="O" horiz-adv-x="1718" d="M135 715q0 165 56.5 304.5t153.5 235t229 148.5t282 53q158 -1 293.5 -58.5t230 -156.5t148 -235t53.5 -291q0 -146 -43 -270t-115 -209t-166 -145t-195.5 -88t-205.5 -28t-205.5 28t-195 88t-164.5 145t-113.5 209t-42.5 270zM180 715q0 -136 39.5 -252t106 -197 t153.5 -138.5t183 -84.5t194 -27t193.5 26.5t183.5 83.5t155.5 137.5t107.5 197t40 254.5q0 146 -50 274.5t-138.5 222t-216 148t-275.5 55.5q-141 0 -265 -50.5t-215 -140t-143.5 -221.5t-52.5 -288z" />
<glyph unicode="P" horiz-adv-x="1173" d="M256 0v1434h371q82 -1 152 -26t119.5 -65.5t85.5 -94.5q35 -56 52 -116q18 -62 18 -127q0 -61 -16 -121t-50.5 -114t-84 -94.5t-120.5 -64.5t-154 -25h-328v-586h-45zM301 627h326q94 2 170 35t121 86q46 52 70 120q23 64 24 130v8q-2 70 -27.5 138t-72 121.5t-120.5 88 t-165 37.5h-326v-764z" />
<glyph unicode="Q" horiz-adv-x="1716" d="M117 713q0 163 61 304t161.5 235t231 147t269.5 53q140 0 270 -52.5t231.5 -145.5t162.5 -234.5t61 -306.5q0 -288 -213 -510l176 -180l-29 -27l-176 178q-116 -104 -229.5 -145t-249.5 -41q-112 0 -218 30t-198.5 91t-161.5 146.5t-109 203.5t-40 254zM160 713 q0 -140 41.5 -256t110 -194t158.5 -132t184 -78t190 -24q136 0 237 36t215 138l-219 219l27 27l219 -218q199 209 199 482q0 137 -41.5 254.5t-110 197.5t-157.5 137t-184 84q-92 25 -182 25h-7q-95 0 -189.5 -26.5t-183.5 -83.5t-157 -137.5t-109 -197t-41 -253.5z" />
<glyph unicode="R" horiz-adv-x="1241" d="M256 0v1434h397q192 0 309.5 -102.5t120.5 -287.5v-7q0 -186 -106 -293q-108 -109 -328 -109h-49l500 -635h-53l-500 633h-246v-633h-45zM301 676h342q197 0 297 92.5t100 275.5q0 171 -107 260t-282 89h-350v-717z" />
<glyph unicode="S" horiz-adv-x="1126" d="M150 223l38 23q53 -106 147 -159.5t206 -55.5h7q150 1 247 79q99 80 106 220v18q1 64 -17 118q-20 62 -54.5 105t-83 77.5t-94 55t-97.5 35.5q-54 15 -100.5 34t-95.5 51t-83 71.5t-56 96.5q-20 52 -19 113v11q4 107 59 184t135 112.5t172 35.5q226 0 336 -184l-39 -19 q-56 87 -127.5 123.5t-169.5 36.5h-5q-79 0 -146 -28q-69 -29 -116.5 -96.5t-53.5 -164.5v-6q0 -62 20 -112q22 -54 53 -87.5t79 -61.5t85 -42.5t86 -28.5q75 -22 139 -55.5t122 -86.5q58 -52 90 -132q26 -67 27 -147q0 -15 -1 -31q-4 -87 -41.5 -154.5t-97 -107t-127.5 -59 t-139 -19.5q-125 0 -229 60.5t-162 176.5z" />
<glyph unicode="T" horiz-adv-x="903" d="M41 1391v43h821v-43h-387v-1391h-45v1391h-389z" />
<glyph unicode="U" horiz-adv-x="1320" d="M236 377v1057h45v-1057q1 -84 34 -152t86 -110t120.5 -65t138 -23t138.5 22.5t121 64.5t86.5 110.5t34.5 152.5v1057h45v-1057q0 -107 -47 -191t-122 -128q-76 -44 -166 -64q-46 -10 -91 -10t-90 10q-91 20 -165.5 63.5t-121 128t-46.5 191.5z" />
<glyph unicode="V" horiz-adv-x="1263" d="M78 1434h47l510 -1407h6l498 1407h47l-512 -1438h-74z" />
<glyph unicode="W" horiz-adv-x="1925" d="M125 1434h45l403 -1411h5l356 1153h70l356 -1153h4l403 1411h45l-411 -1436h-76l-356 1147l-357 -1147h-75z" />
<glyph unicode="X" horiz-adv-x="1296" d="M135 0l500 717l-488 719h50l462 -686l465 684h52l-492 -719l498 -715h-49l-474 682l-477 -682h-47z" />
<glyph unicode="Y" horiz-adv-x="1140" d="M70 1434h51l452 -813l455 813h49l-483 -854v-580h-43v582z" />
<glyph unicode="Z" horiz-adv-x="1142" d="M123 41l842 1350h-768v43h794l27 -39l-844 -1352h854v-43h-872z" />
<glyph unicode="[" horiz-adv-x="616" d="M264 -141v1722h273v-41h-230v-1640h221v-41h-264z" />
<glyph unicode="\" horiz-adv-x="798" d="M61 1581h45l580 -1696h-45z" />
<glyph unicode="]" horiz-adv-x="618" d="M92 1540v41h273v-1722h-265v41h222v1640h-230z" />
<glyph unicode="^" horiz-adv-x="1226" d="M217 664l381 770h33l383 -770h-45l-355 720l-352 -720h-45z" />
<glyph unicode="_" horiz-adv-x="1099" d="M96 -18h940v-43h-940v43z" />
<glyph unicode="`" horiz-adv-x="937" d="M367 1743h61l117 -203h-43z" />
<glyph unicode="a" horiz-adv-x="1126" d="M129 325q5 130 109 220q121 105 327 108q66 0 156.5 -22t169.5 -70v107q0 90 -28.5 157t-79 105.5t-112 57t-134.5 18.5q-158 0 -287 -88l-23 32q127 97 312 97q80 0 149 -21.5t126 -65.5t89.5 -119t32.5 -173v-668h-43v135q-133 -144 -346 -149h-7q-210 0 -325 119 q-86 89 -86 207v13zM176 292q10 -114 109 -187q102 -76 262 -76q90 0 185 43t159 118v326q-153 94 -324 94q-211 0 -319 -115q-74 -78 -73 -177q0 -13 1 -26z" />
<glyph unicode="b" horiz-adv-x="1189" d="M213 29v1405h45v-459q152 69 297 69q137 0 244.5 -59t163.5 -153q57 -93 83 -206q13 -57 13 -114q0 -56 -13 -112q-26 -113 -81 -206t-163.5 -151.5t-246.5 -58.5q-175 0 -342 45zM258 61q57 -14 115 -22t88.5 -9.5t93.5 -2.5q126 0 224.5 53.5t148.5 139t74 189.5 q12 51 11 102q-1 53 -13 106q-24 104 -75 190t-148.5 140t-221.5 54q-71 0 -136 -15t-161 -54v-871z" />
<glyph unicode="c" horiz-adv-x="1073" d="M102 512q0 154 65 278t184.5 195t271.5 72q203 0 344 -127l-27 -29q-127 117 -319 117h-7q-64 0 -126 -17q-66 -18 -128 -58t-108.5 -98.5t-75 -144.5t-29.5 -190q0 -134 58.5 -243.5t167.5 -174.5t248 -65q191 0 327 116l25 -30q-143 -125 -352 -125q-153 0 -273 73 t-183 192t-63 259z" />
<glyph unicode="d" horiz-adv-x="1185" d="M140 400q-13 56 -13 112q-1 57 13 114q26 113 82.5 206.5t164 152.5t244.5 59q145 0 297 -69v459h45v-1405q-167 -45 -342 -45q-138 0 -246.5 58.5t-163.5 151.5t-81 206zM184 409q24 -104 74 -189.5t148.5 -139t224.5 -53.5q63 1 93.5 2.5t88.5 9.5t115 22v871 q-96 39 -161 54t-136 15q-124 0 -221.5 -54t-148.5 -140t-75 -190q-13 -53 -13 -106q-1 -51 11 -102z" />
<glyph unicode="e" horiz-adv-x="1230" d="M115 539q0 141 60.5 257.5t176 187t264.5 71.5h5q103 0 197 -42q96 -43 163 -114.5t101 -171.5q26 -76 27 -156q0 -25 -3 -51h-948q6 -205 136 -348t324 -143q219 0 343 143l30 -29q-90 -90 -169.5 -122.5t-203.5 -32.5q-114 0 -211 48t-160 126.5t-98 176.5 q-34 95 -34 194v6zM158 561h911q0 86 -26 159.5t-70.5 126t-102.5 90t-122.5 56t-131.5 19.5q-191 -2 -320 -123.5t-138 -327.5z" />
<glyph unicode="f" horiz-adv-x="585" d="M127 995v43h115v136q0 74 20.5 127t58.5 81.5t84.5 41t106.5 12.5v-41q-118 -2 -171.5 -52.5t-53.5 -168.5v-136h217v-43h-217v-995h-45v995h-115z" />
<glyph unicode="g" horiz-adv-x="1185" d="M121 522q0 102 34 196t97 168.5t161 119.5t216 45q184 0 344 -45v-1039q0 -185 -104 -281.5t-265 -99.5h-7q-115 0 -195 30q-84 32 -179 112l29 34q147 -133 341 -133h9q141 2 233.5 87.5t92.5 250.5v90q-127 -63 -299 -63q-118 0 -216 44.5t-161 119t-97 168.5t-34 196z M166 528q0 -131 53 -242t160.5 -181t249.5 -70q160 0 299 65v877q-149 33 -299 33h-5q-105 0 -193 -41q-90 -42 -146.5 -111t-87.5 -154.5t-31 -175.5z" />
<glyph unicode="h" horiz-adv-x="1220" d="M213 0v1434h45v-461q141 69 295 69q93 0 177.5 -29t150 -83t103.5 -139q38 -83 38 -184v-5v-602h-45v602q0 99 -35.5 176.5t-96.5 125.5t-138 72.5t-164 24.5q-144 0 -285 -69v-932h-45z" />
<glyph unicode="i" horiz-adv-x="473" d="M209 1323v111h57v-111h-57zM213 0v1040h45v-1040h-45z" />
<glyph unicode="j" horiz-adv-x="473" d="M2 -371q211 0 211 215v1194h45v-1194q0 -123 -66.5 -189.5t-189.5 -66.5v41zM207 1323v111h57v-111h-57z" />
<glyph unicode="k" horiz-adv-x="1040" d="M209 0v1434h43v-973l594 577h55l-440 -432q77 -98 237.5 -303.5t237.5 -302.5h-49l-457 578l-178 -168v-410h-43z" />
<glyph unicode="l" horiz-adv-x="536" d="M201 236v1198h45v-1198q0 -105 41.5 -152t134.5 -47v-39q-110 0 -165.5 55t-55.5 183z" />
<glyph unicode="m" horiz-adv-x="1869" d="M213 0v977q176 70 358 70q45 0 87.5 -6t90 -23t85 -44t67 -72.5t41.5 -104.5q15 61 46 107t67 72t81.5 42t83 21t76.5 5q82 0 147 -20.5t117.5 -65.5t81.5 -126t29 -193v-639h-45v639q0 103 -25 176t-72 112.5t-103.5 56.5t-129.5 17t-131 -19t-103.5 -60t-70.5 -111.5 t-26 -167.5v-643h-45v643v8q0 77 -18 137q-18 64 -50 104t-78 66.5t-96 37t-109 10.5q-80 0 -147.5 -13t-161.5 -45v-948h-47z" />
<glyph unicode="n" horiz-adv-x="1241" d="M213 0v995q100 32 175 44t181 12q136 0 240.5 -45t167.5 -140t63 -229v-637h-43v637q0 102 -36.5 177t-101 116.5t-141 60.5t-167.5 19q-168 0 -293 -43v-967h-45z" />
<glyph unicode="o" horiz-adv-x="1277" d="M113 516q0 118 42.5 219t114 169.5t166 107.5t197.5 39q105 0 199 -38t165.5 -106t113.5 -169.5t42 -221.5q0 -124 -42 -226t-113.5 -168t-165.5 -102t-199 -36q-139 0 -256.5 63.5t-190.5 186.5t-73 282zM156 516q0 -99 29 -183t77 -140.5t110.5 -96.5t128.5 -58 t132 -18q67 0 133 17t129 55.5t111 94.5t77 141t29 188q0 98 -29 181.5t-77 140.5t-110.5 97.5t-129 59.5t-133.5 19q-66 0 -132 -18.5t-128.5 -58.5t-110.5 -97t-77 -141t-29 -183z" />
<glyph unicode="p" horiz-adv-x="1187" d="M213 -412v1420q160 43 338 43q108 0 199 -36t149 -97.5t99 -141t50 -167.5q4 -44 4 -88t-4 -88q-9 -88 -49.5 -167.5t-98.5 -141t-148 -98t-197 -36.5q-145 0 -297 69v-471h-45zM258 102q96 -39 161 -54t136 -15q124 0 221.5 54t148 140t74.5 190q12 52 12 104t-12 104 q-24 104 -74.5 190t-149 139.5t-224.5 53.5q-66 -1 -93 -2.5t-85 -9t-115 -21.5v-873z" />
<glyph unicode="q" horiz-adv-x="1175" d="M126 433q-5 43 -5 85q0 46 5 91q9 88 49.5 167.5t99 141t149.5 97.5t199 36q178 0 338 -43v-1420h-46v471q-152 -69 -297 -69q-107 0 -197 36.5t-148 98t-98.5 141t-48.5 167.5zM174 417q24 -104 74.5 -190t148 -140t221.5 -54q71 0 136 15t161 54v873 q-57 14 -114.5 21.5t-84.5 9t-93 2.5q-126 0 -224.5 -53.5t-149.5 -139.5t-75 -190q-11 -52 -11 -104t11 -104z" />
<glyph unicode="r" horiz-adv-x="806" d="M199 0v1038h39l2 -196q45 102 140 156q87 49 182 49h18q104 -5 186 -62l-18 -33q-80 50 -170 53h-14q-82 0 -150 -33q-74 -36 -123 -113.5t-49 -178.5v-680h-43z" />
<glyph unicode="s" horiz-adv-x="878" d="M131 119l27 28q99 -120 272 -120q111 0 190 62.5t80 178.5q-1 55 -24 99.5t-62.5 73t-83.5 46t-94 25.5q-114 18 -192 90.5t-78 177.5q0 124 88 197.5t213 73.5q69 0 121.5 -18t105.5 -62l-20 -29q-54 39 -97 54.5t-106 15.5q-110 0 -186 -62t-76 -172q0 -54 22 -96.5 t59 -68t75 -40t81 -22.5q63 -13 114.5 -35.5t93.5 -56t65.5 -82.5t23.5 -109q0 -90 -45.5 -155.5t-115 -96t-152.5 -30.5q-90 0 -169 33.5t-130 99.5z" />
<glyph unicode="t" horiz-adv-x="620" d="M106 999v39h121v396h43v-396h213v-39h-213v-747q0 -108 50 -162.5t169 -54.5v-37h-8q-125 0 -189 60q-66 62 -65 194v747h-121z" />
<glyph unicode="u" horiz-adv-x="1239" d="M199 426v612h43v-610q1 -85 27 -153.5t70.5 -113t106 -74.5t128.5 -43t143 -13q159 0 266 37v970h43v-997q-128 -51 -313 -51q-81 0 -154 15t-139 48.5t-114 83.5t-76.5 124t-30.5 165z" />
<glyph unicode="v" horiz-adv-x="958" d="M80 1038h47l354 -1020h2l346 1020h48l-359 -1042h-72z" />
<glyph unicode="w" horiz-adv-x="1443" d="M96 1038h43l293 -1015h4l256 1017h66l256 -1017h4l293 1015h43l-299 -1042h-80l-248 1008h-4l-248 -1008h-80z" />
<glyph unicode="x" horiz-adv-x="1028" d="M119 0l368 520l-366 518h51l340 -487l340 487h49l-364 -518l372 -520h-51l-346 489l-344 -489h-49z" />
<glyph unicode="y" horiz-adv-x="1009" d="M66 1038h47l401 -991l385 991h45l-510 -1304q-32 -88 -79.5 -117t-133.5 -29h-10v37q83 1 115 23.5t67 95.5l99 250q-56 138 -426 1044z" />
<glyph unicode="z" horiz-adv-x="909" d="M119 47l610 950h-579v41h598l30 -43l-614 -952h635v-43h-647z" />
<glyph unicode="{" horiz-adv-x="618" d="M158 684v61q141 49 141 291v359q0 186 162 186h37v-33q-39 2 -65.5 -3t-49 -21t-33 -48t-10.5 -81v-361q0 -130 -37 -206.5t-113 -112.5v-2q77 -35 113.5 -116.5t36.5 -190.5v-349q0 -87 39.5 -122t118.5 -37v-35q-199 0 -199 190v348q0 228 -141 283z" />
<glyph unicode="|" horiz-adv-x="563" d="M254 -305v1829h41v-1829h-41z" />
<glyph unicode="}" horiz-adv-x="618" d="M106 -102q79 2 118.5 37t39.5 122v349q0 109 36.5 190.5t113.5 116.5v2q-76 36 -113 112.5t-37 206.5v361q0 49 -10.5 81t-33 48t-49 21t-65.5 3v33h37q162 0 162 -186v-359q0 -242 141 -291v-61q-141 -55 -141 -283v-348q0 -190 -199 -190v35z" />
<glyph unicode="~" horiz-adv-x="1157" d="M154 578q35 57 76.5 91.5t83 47t90 8t93 -21t97.5 -44.5q78 -45 141 -57.5t125 16.5t111 107l30 -18q-52 -89 -123.5 -122t-145.5 -20t-163 62q-85 46 -145.5 58t-122.5 -17t-121 -109z" />
<glyph unicode="&#xa1;" horiz-adv-x="575" d="M256 938v96h53v-96h-53zM262 -403v1128h43v-1128h-43z" />
<glyph unicode="&#xa2;" horiz-adv-x="1110" d="M158 721q1 128 56 240.5t162 189t245 90.5v191h36v-191q178 -9 295 -111l-24 -30q-106 96 -285 96q-86 0 -165 -34.5t-140 -95.5t-97.5 -152t-37.5 -197q0 -119 56 -228.5t158.5 -179.5t223.5 -67q93 2 164 24t143 86l25 -24q-54 -59 -138.5 -93.5t-179.5 -35.5v-201h-37 v201q-108 10 -196.5 58.5t-145.5 121.5t-87.5 161t-30.5 181z" />
<glyph unicode="&#xa3;" horiz-adv-x="1191" d="M164 0v39h125v649h-121v39h121v330q0 94 30.5 168.5t82.5 120t116 69t135 23.5q63 0 116 -11.5t104.5 -40t90.5 -83t62 -132.5l-39 -6q-68 232 -330 232q-64 0 -120 -19t-103 -57.5t-74.5 -106.5t-27.5 -157v-330h459v-39h-459v-649h723v-39h-891z" />
<glyph unicode="&#xa5;" horiz-adv-x="1189" d="M102 1434h54l450 -816q72 131 228 408t227 408h53l-379 -666h228v-37h-248l-88 -151v-95h336v-36h-336v-449h-43v449h-338v36h338v97l-88 149h-250v37h229q-87 159 -373 666z" />
<glyph unicode="&#xa6;" horiz-adv-x="528" d="M242 -293v799h47v-799h-47zM242 780v809h47v-809h-47z" />
<glyph unicode="&#xa7;" horiz-adv-x="913" d="M154 119l30 26q47 -49 113 -76.5t137 -27.5q105 -2 192.5 60t86.5 165q0 45 -18.5 82t-45.5 60.5t-65.5 42.5t-71 28.5t-68.5 16.5q-57 9 -104.5 26.5t-88.5 45t-64 70.5t-23 97q0 62 36 122t113 95q-56 33 -85 90.5t-29 116.5q0 123 90 204t211 81q140 0 239 -78 l-20 -31q-82 66 -223 70q-103 2 -180 -70.5t-76 -175.5q0 -182 249 -219q297 -48 297 -254q0 -143 -139 -217q64 -49 87.5 -94.5t23.5 -108.5q0 -66 -31 -119.5t-80 -85t-104 -48.5t-109 -17q-172 0 -280 123zM207 735q0 -30 9 -55.5t23 -44t36.5 -34t42 -25t48 -18.5 t47.5 -13.5t46 -9.5q50 -8 145 -48q141 78 141 199q0 38 -12 69t-35.5 53t-47.5 37.5t-61 27t-62.5 18t-65.5 14.5q-68 14 -111 27q-146 -73 -143 -197z" />
<glyph unicode="&#xa8;" horiz-adv-x="1021" d="M305 1618v76h70v-76h-70zM659 1618v76h70v-76h-70z" />
<glyph unicode="&#xa9;" horiz-adv-x="1660" d="M131 717q0 151 55 284t148 226t219 146.5t264 53.5q140 0 266.5 -53.5t220 -146.5t148.5 -226t55 -284t-55 -285t-148.5 -227.5t-220 -148t-266.5 -54.5q-185 0 -342 92t-250.5 257t-93.5 366zM176 717q0 -144 51 -270t137.5 -213.5t204 -138t248.5 -50.5q132 0 250.5 50 t205.5 138t138 214t51 270q0 192 -87 345.5t-234 237.5t-324 84q-131 0 -248.5 -49.5t-204 -136t-137.5 -212t-51 -269.5zM493.5 713q-2.5 108 41.5 192q45 85 125 131.5t176 46.5q134 0 221 -73l-21 -31q-91 61 -200 61q-175 0 -258 -149q-44 -81 -43 -183t51 -180 q39 -63 105 -97t145 -34q64 0 109 16.5t104 57.5l24 -31q-51 -40 -114 -63t-123 -23q-90 0 -169 44.5t-126 123.5q-45 83 -47.5 191z" />
<glyph unicode="&#xaa;" horiz-adv-x="956" d="M162 1067q0 147 102.5 256.5t243.5 112.5q149 7 266 -41v-666h-41v82q-49 -55 -112 -80.5t-125.5 -21.5t-123.5 32t-107 74t-74.5 112.5t-28.5 139.5zM182 489v41h609v-41h-609zM205 1065q0 -65 27 -124t70.5 -101.5t100 -66.5t114 -24.5t115.5 30t101 91.5v498 q-106 36 -227 29q-131 -10 -216 -104.5t-85 -227.5z" />
<glyph unicode="&#xab;" horiz-adv-x="1013" d="M158 578l317 401h55l-321 -401l321 -396h-55zM496 578l317 401h55l-321 -401l321 -396h-55z" />
<glyph unicode="&#xac;" horiz-adv-x="1257" d="M143 782v41h899v-481h-41v440h-858z" />
<glyph unicode="&#xad;" horiz-adv-x="882" d="M152 584v41h571v-41h-571z" />
<glyph unicode="&#xae;" horiz-adv-x="1681" d="M150 717q0 152 55 285.5t148 227t219.5 147t265.5 53.5q141 0 268 -53.5t220.5 -147t148.5 -227t55 -285.5t-55 -286t-148.5 -228t-220.5 -148.5t-268 -54.5q-139 0 -265.5 54.5t-219.5 148.5t-148 228t-55 286zM193 717q0 -145 51 -272t138.5 -215t206 -138.5 t249.5 -50.5q133 0 252.5 50.5t206.5 139t138.5 215t51.5 271.5t-51.5 271t-139 213.5t-206.5 137.5t-252 50q-132 0 -250 -50t-205.5 -137.5t-138.5 -213.5t-51 -271zM633 356v731h229q103 0 171 -56t69 -150q0 -89 -69.5 -154t-192.5 -59l250 -312h-54l-241 310h-121v-310 h-41zM674 702h188q97 1 148 54.5t51 126.5q0 72 -50.5 119t-148.5 47h-188v-347z" />
<glyph unicode="&#xaf;" horiz-adv-x="1021" d="M268 1569v39h494v-39h-494z" />
<glyph unicode="&#xb0;" horiz-adv-x="782" d="M166 1231q0 90 62.5 152.5t152.5 62.5q91 0 154 -63t63 -152t-63 -152t-154 -63q-90 0 -152.5 62.5t-62.5 152.5zM203 1231q0 -71 52.5 -125.5t125.5 -54.5t125.5 54.5t52.5 125.5q0 70 -53 124t-125 54t-125 -54t-53 -124z" />
<glyph unicode="&#xb1;" d="M197 16v39h870v-39h-870zM197 756v41h405v407h43v-407h406v-41h-406v-422h-43v422h-405z" />
<glyph unicode="&#xb2;" horiz-adv-x="808" d="M129 735q161 153 281.5 270.5t148.5 143.5q57 53 74 115t-4 112.5t-75 86.5t-130 42q-152 6 -244 -110l-33 24q101 134 279 127q87 -4 152 -47.5t90.5 -105.5t6.5 -138t-89 -139l-393 -379h512v-43h-551z" />
<glyph unicode="&#xb3;" horiz-adv-x="831" d="M135 768l31 23q48 -67 105.5 -98t140.5 -31q93 0 168 57.5t75 150.5q0 95 -67 152t-160 57h-76v39h76q83 0 142 43.5t59 126.5q0 87 -65 140t-152 53q-67 0 -115 -23t-90 -78l-29 23q88 119 232 119q104 0 183 -65t79 -169q0 -66 -42.5 -121t-99.5 -67v-2 q80 -24 125 -93.5t43 -136.5q-1 -77 -44 -135t-108 -86.5t-138 -28.5q-78 0 -150 39t-123 111z" />
<glyph unicode="&#xb4;" horiz-adv-x="972" d="M408 1540l116 203h62l-135 -203h-43z" />
<glyph unicode="&#xb6;" horiz-adv-x="1138" d="M113 1040q0 75 27 144.5t78 126t134 90t185 33.5h397v-1661h-41v1622h-315v-1622h-41v884q-102 4 -185 39t-134 89t-78 119.5t-27 135.5z" />
<glyph unicode="&#xb7;" horiz-adv-x="532" d="M227 571v60h58v-60h-58z" />
<glyph unicode="&#xb8;" horiz-adv-x="1021" d="M379 -326l6 35q38 -24 93 -29.5t100.5 12.5t52.5 58q10 57 -52 87t-137 22q15 29 43.5 79t40.5 72h43l-67 -119q95 0 138 -46.5t34 -100.5q-9 -51 -54 -78.5t-112 -27.5q-69 0 -129 36z" />
<glyph unicode="&#xb9;" horiz-adv-x="583" d="M137 1395v39h174v-881h-43v842h-131z" />
<glyph unicode="&#xba;" horiz-adv-x="956" d="M199 1149q0 117 79.5 194.5t196.5 77.5q119 0 200 -78t81 -194q0 -120 -80.5 -199.5t-198.5 -79.5q-119 0 -198.5 79t-79.5 200zM213 621v43h539v-43h-539zM242 1149q0 -105 68 -172.5t167 -67.5q97 0 165.5 67.5t68.5 172.5q0 102 -68.5 167.5t-165.5 65.5 q-99 0 -167 -65.5t-68 -167.5z" />
<glyph unicode="&#xbb;" horiz-adv-x="1042" d="M178 180l322 402l-322 395h55l318 -395l-318 -402h-55zM516 180l322 402l-322 395h55l318 -395l-318 -402h-55z" />
<glyph unicode="&#xbc;" horiz-adv-x="1808" d="M166 1395v39h174v-824h-43v785h-131zM424 -47q127 265 379 787.5t379 787.5h49q-127 -265 -379 -787.5t-379 -787.5h-49zM1038 252l453 606h72v-610h94v-43h-94v-205h-45v205h-447zM1087 248h433v579z" />
<glyph unicode="&#xbd;" horiz-adv-x="1880" d="M147 1395v39h175v-824h-43v785h-132zM395 -47l758 1575h49l-758 -1575h-49zM1124 41q161 153 281.5 270.5t148.5 143.5q57 53 74 115t-4 112.5t-75 86.5t-130 42q-150 6 -243 -111l-33 25q101 134 278 127q87 -4 152 -47.5t90.5 -105.5t6.5 -138t-89 -139l-393 -379h512 v-43h-551z" />
<glyph unicode="&#xbe;" horiz-adv-x="1916" d="M90 768l31 23q48 -67 105.5 -98t140.5 -31q93 0 168 57.5t75 150.5q0 95 -67 152t-160 57h-76v39h76q83 0 142 43.5t59 126.5q0 87 -65 140t-152 53q-67 0 -115 -23t-90 -78l-29 23q88 119 232 119q104 0 183 -65t79 -169q0 -66 -42.5 -121t-99.5 -67v-2 q80 -24 125 -93.5t43 -136.5q-1 -77 -44.5 -135t-108.5 -86.5t-138 -28.5q-78 0 -149.5 39t-122.5 111zM530 -47l758 1575h49l-757 -1575h-50zM1116 252l453 606h71v-610h95v-43h-95v-205h-45v205h-446zM1165 248h432v579z" />
<glyph unicode="&#xbf;" horiz-adv-x="985" d="M147 10q1 168 113.5 279t302.5 139q1 51 2 183.5t2 183.5h39v-402q-83 -8 -157 -36t-133 -75t-93 -118t-33 -156q1 -83 34.5 -153t87 -114t118.5 -68.5t133 -24.5q196 0 301 127l31 -27q-116 -141 -332 -141q-77 0 -151.5 29t-134 80.5t-95.5 128.5t-35 165zM557 956v99 h51v-99h-51z" />
<glyph unicode="&#xc0;" d="M76 0l520 1440h82l524 -1440h-49l-186 508h-662l-180 -508h-49zM322 551h632l-305 850h-24zM477 1739h62l116 -203h-43z" />
<glyph unicode="&#xc1;" d="M76 0h49l180 508h662l186 -508h49l-524 1440h-82zM322 551l303 850h24l305 -850h-632zM612 1542l117 203h62l-136 -203h-43z" />
<glyph unicode="&#xc2;" d="M76 0l520 1440h82l524 -1440h-49l-186 508h-662l-180 -508h-49zM322 551h632l-305 850h-24zM438 1530l168 196h53l168 -196h-47l-147 162l-148 -162h-47z" />
<glyph unicode="&#xc3;" d="M76 0l520 1440h82l524 -1440h-49l-186 508h-662l-180 -508h-49zM322 551h632l-305 850h-24zM432 1585q33 76 117 76q33 0 97 -38t95 -38q52 0 90 55l23 -16q-47 -78 -117 -78q-35 0 -97.5 38t-92.5 38q-57 0 -90 -51z" />
<glyph unicode="&#xc4;" d="M76 0l520 1440h82l524 -1440h-49l-186 508h-662l-180 -508h-49zM322 551h632l-305 850h-24zM420 1538v76h69v-76h-69zM774 1538v76h70v-76h-70z" />
<glyph unicode="&#xc5;" d="M76 0l520 1440h82l524 -1440h-49l-186 508h-662l-180 -508h-49zM322 551h632l-305 850h-24zM528 1601q-7 33 0 65.5t38 55t75 21.5q44 1 74 -21.5t36.5 -55t-0.5 -65.5t-37 -56t-73 -23q-45 0 -75.5 23t-37.5 56zM561.5 1654.5q-4.5 -22.5 0.5 -45.5t26.5 -39t52.5 -16 q50 0 71.5 39t1 77.5t-72.5 37.5q-32 1 -53.5 -15t-26 -38.5z" />
<glyph unicode="&#xc6;" horiz-adv-x="1738" d="M129 0l752 1434h716v-39h-630v-654h624v-36h-624v-668h630v-37h-671v535h-467l-281 -535h-49zM477 573h449v826h-19z" />
<glyph unicode="&#xc7;" horiz-adv-x="1472" d="M115 711q0 147 48.5 279t137 234t225.5 162t303 60q156 0 268.5 -50.5t213.5 -158.5l-27 -29q-98 100 -197 148.5t-258 48.5q-193 0 -345 -85.5t-238 -244t-86 -364.5q0 -142 48.5 -267t135 -217t212.5 -145t273 -53q140 0 267.5 57.5t220.5 169.5l31 -27 q-193 -234 -502 -243l-51 -92q95 0 138 -47t34 -101q-9 -51 -54 -78.5t-112 -27.5q-69 0 -129 36l6 35q38 -24 93 -29.5t100.5 12.5t52.5 58q10 57 -52 87t-137 22q13 25 37 67.5t33 59.5q-207 5 -366 104.5t-241.5 261.5t-82.5 357z" />
<glyph unicode="&#xc8;" horiz-adv-x="1058" d="M248 0v1434h688v-41h-641v-654h633v-41h-633v-655h641v-43h-688zM477 1743h62l116 -203h-43z" />
<glyph unicode="&#xc9;" horiz-adv-x="1058" d="M248 0h702v43h-657v655h649v41h-647v652h655v43h-702v-1434zM573 1530l117 203h62l-136 -203h-43z" />
<glyph unicode="&#xca;" horiz-adv-x="1058" d="M248 0v1434h702v-43h-655v-652h647v-41h-649v-655h657v-43h-702zM410 1540l168 197h53l168 -197h-47l-148 162l-147 -162h-47z" />
<glyph unicode="&#xcb;" horiz-adv-x="1058" d="M248 0v1434h702v-43h-655v-652h647v-41h-649v-655h657v-43h-702zM399 1544v76h70v-76h-70zM754 1544v76h69v-76h-69z" />
<glyph unicode="&#xcc;" horiz-adv-x="555" d="M119 1737h61l117 -203h-43zM256 0v1434h45v-1434h-45z" />
<glyph unicode="&#xcd;" horiz-adv-x="555" d="M254 1534l117 203h61l-135 -203h-43zM256 0h45v1434h-45v-1434z" />
<glyph unicode="&#xce;" horiz-adv-x="555" d="M82 1534l168 197h53l168 -197h-47l-148 162l-147 -162h-47zM256 0v1434h45v-1434h-45z" />
<glyph unicode="&#xcf;" horiz-adv-x="555" d="M68 1534v76h69v-76h-69zM256 0v1434h45v-1434h-45zM422 1534v76h70v-76h-70z" />
<glyph unicode="&#xd0;" horiz-adv-x="1464" d="M115 692v41h139v701h387q146 0 267.5 -49.5t200.5 -132.5t134 -191t66.5 -227t0 -237.5t-67 -226t-134.5 -190.5t-201 -131.5t-268 -48.5h-385v692h-139zM299 43h338q138 -1 253 45t189.5 123.5t126 179t63 213t0 223.5t-63 213.5t-125.5 180t-188.5 124.5t-250.5 46 h-342v-658h303v-41h-303v-649z" />
<glyph unicode="&#xd1;" horiz-adv-x="1472" d="M256 0v1436h82l838 -1411h4v1409h45v-1436h-84l-836 1409h-4v-1407h-45zM528 1571q33 76 117 76q33 0 97.5 -38t95.5 -38q52 0 90 55l22 -16q-47 -78 -116 -78q-35 0 -98 38t-93 38q-56 0 -90 -52z" />
<glyph unicode="&#xd2;" horiz-adv-x="1718" d="M135 715q0 165 56.5 304.5t153.5 235t229 148.5t282 53q158 -1 293.5 -58.5t230 -156.5t148 -235t53.5 -291q0 -146 -43 -270t-115 -209t-166 -145t-195.5 -88t-205.5 -28t-205.5 28t-195 88t-164.5 145t-113.5 209t-42.5 270zM180 715q0 -136 39.5 -252t106 -197 t153.5 -138.5t183 -84.5t194 -27t193.5 26.5t183.5 83.5t155.5 137.5t107.5 197t40 254.5q0 146 -50 274.5t-138.5 222t-216 148t-275.5 55.5q-141 0 -265 -50.5t-215 -140t-143.5 -221.5t-52.5 -288zM700 1759h62l117 -203h-43z" />
<glyph unicode="&#xd3;" horiz-adv-x="1718" d="M135 715q0 -146 42.5 -270t113.5 -209t164.5 -145t195 -88t205.5 -28t205.5 28t195.5 88t166 145t115 209t43 270q0 155 -53.5 291t-148 235t-230 156.5t-293.5 58.5q-150 0 -282 -53t-229 -148.5t-153.5 -235t-56.5 -304.5zM180 715q0 156 52.5 288t143.5 221.5t215 140 t265 50.5q148 -1 275.5 -55.5t216 -148t138.5 -222t50 -274.5q0 -138 -40 -254.5t-107.5 -197t-155.5 -137.5t-183.5 -83.5t-193.5 -26.5t-194 27t-183 84.5t-153.5 138.5t-106 197t-39.5 252zM829 1556l117 203h62l-136 -203h-43z" />
<glyph unicode="&#xd4;" horiz-adv-x="1718" d="M135 715q0 165 56.5 304.5t153.5 235t229 148.5t282 53q158 -1 293.5 -58.5t230 -156.5t148 -235t53.5 -291q0 -146 -43 -270t-115 -209t-166 -145t-195.5 -88t-205.5 -28t-205.5 28t-195 88t-164.5 145t-113.5 209t-42.5 270zM180 715q0 -136 39.5 -252t106 -197 t153.5 -138.5t183 -84.5t194 -27t193.5 26.5t183.5 83.5t155.5 137.5t107.5 197t40 254.5q0 146 -50 274.5t-138.5 222t-216 148t-275.5 55.5q-141 0 -265 -50.5t-215 -140t-143.5 -221.5t-52.5 -288zM655 1540l168 197h54l167 -197h-47l-147 162l-148 -162h-47z" />
<glyph unicode="&#xd5;" horiz-adv-x="1718" d="M135 715q0 165 56.5 304.5t153.5 235t229 148.5t282 53q158 -1 293.5 -58.5t230 -156.5t148 -235t53.5 -291q0 -146 -43 -270t-115 -209t-166 -145t-195.5 -88t-205.5 -28t-205.5 28t-195 88t-164.5 145t-113.5 209t-42.5 270zM180 715q0 -136 39.5 -252t106 -197 t153.5 -138.5t183 -84.5t194 -27t193.5 26.5t183.5 83.5t155.5 137.5t107.5 197t40 254.5q0 146 -50 274.5t-138.5 222t-216 148t-275.5 55.5q-141 0 -265 -50.5t-215 -140t-143.5 -221.5t-52.5 -288zM662 1595q33 76 120 76q33 0 97.5 -38t95.5 -38q51 0 90 56l27 -17 q-47 -78 -121 -78q-35 0 -98 38t-93 38q-57 0 -90 -51z" />
<glyph unicode="&#xd6;" horiz-adv-x="1718" d="M135 715q0 165 56.5 304.5t153.5 235t229 148.5t282 53q158 -1 293.5 -58.5t230 -156.5t148 -235t53.5 -291q0 -146 -43 -270t-115 -209t-166 -145t-195.5 -88t-205.5 -28t-205.5 28t-195 88t-164.5 145t-113.5 209t-42.5 270zM180 715q0 -136 39.5 -252t106 -197 t153.5 -138.5t183 -84.5t194 -27t193.5 26.5t183.5 83.5t155.5 137.5t107.5 197t40 254.5q0 146 -50 274.5t-138.5 222t-216 148t-275.5 55.5q-141 0 -265 -50.5t-215 -140t-143.5 -221.5t-52.5 -288zM651 1567v75h70v-75h-70zM1006 1567v75h69v-75h-69z" />
<glyph unicode="&#xd7;" horiz-adv-x="1009" d="M160 281l315 315l-309 309l29 25l307 -307l295 295l28 -25l-299 -299l310 -307l-27 -25l-307 309l-314 -317z" />
<glyph unicode="&#xd8;" horiz-adv-x="1718" d="M135 715q0 165 56.5 304.5t153.5 235t229 148.5t282 53q201 -3 363 -92l98 166h47l-111 -187q154 -98 241 -262.5t87 -365.5q0 -146 -43 -270t-115 -209.5t-166 -146t-195.5 -88.5t-205.5 -28q-193 0 -360 90l-88 -149h-52l103 172q-148 94 -236 253t-88 376zM180 715 q0 -202 82 -351.5t219 -238.5l715 1202q-148 85 -340 88q-141 0 -265 -50.5t-215 -140t-143.5 -221.5t-52.5 -288zM518 102q160 -86 338 -86q98 0 193.5 26.5t183.5 83.5t155.5 137.5t107.5 197t40 254.5q0 188 -81 343.5t-224 248.5z" />
<glyph unicode="&#xd9;" horiz-adv-x="1320" d="M236 377v1057h45v-1057q1 -84 34 -152t86 -110t120.5 -65t138 -23t138.5 22.5t121 64.5t86.5 110.5t34.5 152.5v1057h45v-1057q0 -107 -47 -191t-122 -127.5t-165.5 -64t-181.5 -0.5t-165.5 63.5t-121 128t-46.5 191.5zM539 1737h61l117 -203h-43z" />
<glyph unicode="&#xda;" horiz-adv-x="1320" d="M236 377q0 -107 46.5 -191.5t121 -128t165.5 -63.5t181.5 0.5t165.5 64t122 127.5t47 191v1057h-45v-1057q-1 -84 -34.5 -152.5t-86.5 -110.5t-121 -64.5t-138.5 -22.5t-138 23t-120.5 65t-86 110t-34 152v1057h-45v-1057zM612 1536l117 203h62l-136 -203h-43z" />
<glyph unicode="&#xdb;" horiz-adv-x="1320" d="M236 377v1057h45v-1057q1 -84 34 -152t86 -110t120.5 -65t138 -23t138.5 22.5t121 64.5t86.5 110.5t34.5 152.5v1057h45v-1057q0 -107 -47 -191t-122 -127.5t-165.5 -64t-181.5 -0.5t-165.5 63.5t-121 128t-46.5 191.5zM471 1536l168 197h53l168 -197h-47l-147 162 l-148 -162h-47z" />
<glyph unicode="&#xdc;" horiz-adv-x="1320" d="M236 377v1057h45v-1057q1 -84 34 -152t86 -110t120.5 -65t138 -23t138.5 22.5t121 64.5t86.5 110.5t34.5 152.5v1057h45v-1057q0 -107 -47 -191t-122 -127.5t-165.5 -64t-181.5 -0.5t-165.5 63.5t-121 128t-46.5 191.5zM459 1538v76h69v-76h-69zM813 1538v76h70v-76h-70z " />
<glyph unicode="&#xdd;" horiz-adv-x="1140" d="M70 1434l481 -852v-582h43v580l483 854h-49l-455 -813l-452 813h-51zM528 1526l117 203h62l-136 -203h-43z" />
<glyph unicode="&#xde;" horiz-adv-x="1161" d="M246 0v1436h45v-285h327q103 0 186.5 -35.5t135.5 -94t79.5 -130.5t27.5 -150q0 -79 -27.5 -150t-79 -127t-134 -89t-185.5 -33h-330v-342h-45zM291 383h327q96 0 172 32t120.5 84.5t67.5 114.5t23 127q0 66 -23 129.5t-68 118t-121 88t-171 33.5h-327v-727z" />
<glyph unicode="&#xdf;" horiz-adv-x="1148" d="M209 0v1098q-1 159 108.5 253.5t255.5 94.5q68 0 130.5 -22.5t112 -64t79 -107t29.5 -144.5q0 -26 -1.5 -48.5t-15 -69.5t-36.5 -83.5t-72 -74t-117 -56.5v-2q82 -10 148.5 -48.5t107 -94t61.5 -117t21 -121.5q0 -100 -36.5 -179.5t-97 -127t-138 -72.5t-161.5 -22.5 t-165 28.5v43q48 -20 77.5 -25t82.5 -5q186 0 289.5 103t103.5 253q0 68 -25.5 131.5t-73.5 115t-124.5 82.5t-169.5 32h-103v45h103q75 1 135 31t94.5 76.5t51.5 100t14 107.5q0 133 -91.5 214t-212.5 81q-62 0 -117.5 -18.5t-101.5 -54.5t-73 -96.5t-27 -137.5v-1098h-45z " />
<glyph unicode="&#xe0;" horiz-adv-x="1126" d="M129 325q5 130 109 220q121 105 327 108q66 0 156.5 -22t169.5 -70v107q0 90 -28.5 157t-79 105.5t-112 57t-134.5 18.5q-158 0 -287 -88l-23 32q127 97 312 97q80 0 149 -21.5t126 -65.5t89.5 -119t32.5 -173v-668h-43v135q-133 -144 -346 -149q-215 -2 -332 119 q-91 94 -86 220zM175.5 292.5q10.5 -114.5 109.5 -187.5q102 -76 262 -76q90 0 185 43t159 118v326q-153 94 -324 94q-211 0 -319 -115q-83 -88 -72.5 -202.5zM426 1423h61l117 -202h-43z" />
<glyph unicode="&#xe1;" horiz-adv-x="1126" d="M129 298q7 -128 109 -214q116 -99 309 -98q213 5 346 149v-135h43v668q0 98 -32.5 173t-89.5 119t-126 65.5t-149 21.5q-185 0 -312 -97l23 -32q129 88 287 88q73 0 134.5 -18.5t112 -57t79 -105.5t28.5 -157v-107q-79 48 -169.5 70t-156.5 22q-229 -3 -350 -130 q-93 -97 -86 -225zM176 341q12 116 114 191q107 78 277 78q171 0 324 -94v-326q-64 -75 -159 -118t-185 -43q-198 0 -302 112q-81 87 -69 200zM526 1221l117 202h62l-136 -202h-43z" />
<glyph unicode="&#xe2;" horiz-adv-x="1126" d="M129 325q5 130 109 220q121 105 327 108q66 0 156.5 -22t169.5 -70v107q0 90 -28.5 157t-79 105.5t-112 57t-134.5 18.5q-158 0 -287 -88l-23 32q127 97 312 97q80 0 149 -21.5t126 -65.5t89.5 -119t32.5 -173v-668h-43v135q-133 -144 -346 -149q-215 -2 -332 119 q-91 94 -86 220zM175.5 292.5q10.5 -114.5 109.5 -187.5q102 -76 262 -76q90 0 185 43t159 118v326q-153 94 -324 94q-211 0 -319 -115q-83 -88 -72.5 -202.5zM365 1225l167 196h54l168 -196h-47l-148 161l-147 -161h-47z" />
<glyph unicode="&#xe3;" horiz-adv-x="1126" d="M129 325q5 130 109 220q121 105 327 108q66 0 156.5 -22t169.5 -70v107q0 90 -28.5 157t-79 105.5t-112 57t-134.5 18.5q-158 0 -287 -88l-23 32q127 97 312 97q80 0 149 -21.5t126 -65.5t89.5 -119t32.5 -173v-668h-43v135q-133 -144 -346 -149q-215 -2 -332 119 q-91 94 -86 220zM175.5 292.5q10.5 -114.5 109.5 -187.5q102 -76 262 -76q90 0 185 43t159 118v326q-153 94 -324 94q-211 0 -319 -115q-83 -88 -72.5 -202.5zM348 1331q33 76 117 76q33 0 97 -38t95 -38q53 0 91 55l22 -16q-47 -78 -117 -78q-35 0 -97.5 38t-92.5 38 q-57 0 -90 -51z" />
<glyph unicode="&#xe4;" horiz-adv-x="1126" d="M129 325q5 130 109 220q121 105 327 108q66 0 156.5 -22t169.5 -70v107q0 90 -28.5 157t-79 105.5t-112 57t-134.5 18.5q-158 0 -287 -88l-23 32q127 97 312 97q80 0 149 -21.5t126 -65.5t89.5 -119t32.5 -173v-668h-43v135q-133 -144 -346 -149q-215 -2 -332 119 q-91 94 -86 220zM175.5 292.5q10.5 -114.5 109.5 -187.5q102 -76 262 -76q90 0 185 43t159 118v326q-153 94 -324 94q-211 0 -319 -115q-83 -88 -72.5 -202.5zM352 1311v75h70v-75h-70zM707 1311v75h69v-75h-69z" />
<glyph unicode="&#xe5;" horiz-adv-x="1126" d="M129 325q5 130 109 220q121 105 327 108q66 0 156.5 -22t169.5 -70v107q0 90 -28.5 157t-79 105.5t-112 57t-134.5 18.5q-158 0 -287 -88l-23 32q127 97 312 97q80 0 149 -21.5t126 -65.5t89.5 -119t32.5 -173v-668h-43v135q-133 -144 -346 -149q-215 -2 -332 119 q-91 94 -86 220zM175.5 292.5q10.5 -114.5 109.5 -187.5q102 -76 262 -76q90 0 185 43t159 118v326q-153 94 -324 94q-211 0 -319 -115q-83 -88 -72.5 -202.5zM456 1273q-7 33 0 65.5t38 55t75 21.5q44 1 74 -21.5t36.5 -55t-0.5 -65.5t-37 -56t-73 -23q-45 0 -75.5 23 t-37.5 56zM489.5 1326.5q-4.5 -22.5 0.5 -45t26.5 -38.5t52.5 -16q50 0 71.5 38.5t1 77t-72.5 37.5q-32 1 -53.5 -15t-26 -38.5z" />
<glyph unicode="&#xe6;" horiz-adv-x="2041" d="M144 325q5 130 108 220q121 105 328 108q66 0 157 -22.5t170 -69.5v107q0 90 -29 157t-80 105.5t-112.5 57t-134.5 18.5q-158 0 -287 -88l-22 32q127 97 311 97q71 0 135.5 -18.5t119 -55t91 -99.5t45.5 -145q53 153 174.5 239t290.5 87q141 1 259.5 -71t181.5 -196.5 t48 -267.5h-948q6 -205 136.5 -348t324.5 -143q218 0 342 143l31 -29q-90 -90 -169.5 -122.5t-203.5 -32.5q-127 0 -229 56t-170 153q-54 -63 -120.5 -107.5t-130 -65t-110.5 -29t-90 -9.5q-215 -2 -332 119q-91 94 -85 220zM190 293q11 -115 110 -189q102 -75 261 -75 q102 0 224.5 54.5t203.5 149.5q-79 136 -82 283q-153 94 -325 94q-211 0 -320 -115q-83 -88 -72 -202zM950 561h912q0 86 -26 159.5t-70.5 126t-102.5 90t-122.5 56t-131.5 19.5q-191 -2 -320.5 -123.5t-138.5 -327.5z" />
<glyph unicode="&#xe7;" horiz-adv-x="1073" d="M102 512q0 154 65 278t184.5 195t271.5 72q111 0 190 -25.5t154 -93.5l-27 -29q-72 66 -146.5 86.5t-172.5 20.5q-68 1 -133.5 -17t-127.5 -57.5t-108.5 -97.5t-75 -144t-29.5 -190q0 -216 130.5 -349.5t343.5 -133.5q102 0 182 24.5t145 91.5l25 -30 q-129 -121 -326 -127l-53 -90q94 0 136.5 -43.5t33.5 -94.5q-9 -48 -53.5 -73t-110.5 -25q-70 0 -127 33l4 33q38 -22 92.5 -27t99.5 11.5t52 53.5q10 53 -50 81t-134 20l69 121q-228 6 -366 152.5t-138 373.5z" />
<glyph unicode="&#xe8;" horiz-adv-x="1230" d="M115 539q0 141 60.5 257.5t176 187t264.5 71.5q106 1 201.5 -42t163 -114.5t102 -171.5t23.5 -207h-948q6 -205 136 -348t324 -143q219 0 343 143l30 -29q-90 -90 -169.5 -122.5t-203.5 -32.5q-114 0 -211 48t-160 126.5t-98 176.5t-34 200zM158 561h911q0 86 -26 159.5 t-70.5 126t-102.5 90t-122.5 56t-131.5 19.5q-191 -2 -320 -123.5t-138 -327.5zM498 1419h61l117 -202h-43z" />
<glyph unicode="&#xe9;" horiz-adv-x="1230" d="M115 539q-1 -102 34 -200t98 -176.5t160 -126.5t211 -48q124 0 203.5 32.5t169.5 122.5l-30 29q-124 -143 -343 -143q-194 0 -324 143t-136 348h948q11 107 -23.5 207t-102 171.5t-163 114.5t-201.5 42q-149 -1 -264.5 -71.5t-176 -187t-60.5 -257.5zM158 561 q9 206 138 327.5t320 123.5q67 -1 131.5 -19.5t122.5 -56t102.5 -90t70.5 -126t26 -159.5h-911zM571 1221l117 202h62l-136 -202h-43z" />
<glyph unicode="&#xea;" horiz-adv-x="1230" d="M115 539q0 141 60.5 257.5t176 187t264.5 71.5q106 1 201.5 -42t163 -114.5t102 -171.5t23.5 -207h-948q6 -205 136 -348t324 -143q219 0 343 143l30 -29q-90 -90 -169.5 -122.5t-203.5 -32.5q-114 0 -211 48t-160 126.5t-98 176.5t-34 200zM158 561h911q0 86 -26 159.5 t-70.5 126t-102.5 90t-122.5 56t-131.5 19.5q-191 -2 -320 -123.5t-138 -327.5zM436 1214l168 197h53l168 -197h-47l-147 162l-148 -162h-47z" />
<glyph unicode="&#xeb;" horiz-adv-x="1230" d="M115 539q0 141 60.5 257.5t176 187t264.5 71.5q106 1 201.5 -42t163 -114.5t102 -171.5t23.5 -207h-948q6 -205 136 -348t324 -143q219 0 343 143l30 -29q-90 -90 -169.5 -122.5t-203.5 -32.5q-114 0 -211 48t-160 126.5t-98 176.5t-34 200zM158 561h911q0 86 -26 159.5 t-70.5 126t-102.5 90t-122.5 56t-131.5 19.5q-191 -2 -320 -123.5t-138 -327.5zM414 1309v75h69v-75h-69zM768 1309v75h70v-75h-70z" />
<glyph unicode="&#xec;" horiz-adv-x="471" d="M78 1417h61l117 -203h-43zM205 0v1040h45v-1040h-45z" />
<glyph unicode="&#xed;" horiz-adv-x="471" d="M205 0h45v1040h-45v-1040zM205 1217l117 202h61l-135 -202h-43z" />
<glyph unicode="&#xee;" horiz-adv-x="471" d="M35 1217l168 196h53l168 -196h-47l-148 161l-147 -161h-47zM205 0v1040h45v-1040h-45z" />
<glyph unicode="&#xef;" horiz-adv-x="471" d="M18 1339v76h70v-76h-70zM205 0v1040h45v-1040h-45zM373 1339v76h69v-76h-69z" />
<glyph unicode="&#xf0;" horiz-adv-x="1214" d="M111 467q2 65 22.5 128t60.5 119.5t95 99.5t132 68.5t165 24.5q55 -1 109 -13.5t114 -41.5t113.5 -85.5t89.5 -135.5q-8 207 -86 367.5t-224 254.5l-262 -172l-24 29l250 168q-169 97 -357 100q0 4 1 18t1 17q113 -2 205.5 -28.5t185.5 -84.5l191 111l25 -27l-183 -108 q121 -82 194 -203.5t98.5 -248.5t25.5 -287v-66q-1 -92 -30 -176.5t-84.5 -153.5t-147 -110t-205.5 -41q-91 0 -170.5 28.5t-135 76t-95 109t-58 129t-16.5 134.5zM156 465q-2 -75 25.5 -150.5t79 -139.5t136.5 -104t189 -40q84 0 155.5 26t121 69t83.5 99.5t49.5 117.5 t14.5 122q-2 73 -29.5 143t-78.5 128.5t-133.5 94t-182.5 35.5t-182.5 -34.5t-135 -92t-81.5 -128.5t-31 -146z" />
<glyph unicode="&#xf1;" horiz-adv-x="1241" d="M213 0v995q100 32 175 44t181 12q136 0 240.5 -45t167.5 -140t63 -229v-637h-43v637q0 102 -36.5 177t-101 116.5t-141 60.5t-167.5 19q-168 0 -293 -43v-967h-45zM406 1327q33 76 116 76q33 0 97.5 -38t95.5 -38q52 0 90 55l22 -16q-47 -78 -116 -78q-35 0 -98 38 t-93 38q-57 0 -90 -51z" />
<glyph unicode="&#xf2;" horiz-adv-x="1277" d="M113 516q0 118 42.5 219t114 169.5t166 107.5t197.5 39q105 0 199 -38t165.5 -106t113.5 -169.5t42 -221.5q0 -124 -42 -226t-113.5 -168t-165.5 -102t-199 -36q-139 0 -256.5 63.5t-190.5 186.5t-73 282zM156 516q0 -99 29 -183t77 -140.5t110.5 -96.5t128.5 -58 t132 -18q67 0 133 17t129 55.5t111 94.5t77 141t29 188q0 98 -29 181.5t-77 140.5t-110.5 97.5t-129 59.5t-133.5 19q-66 0 -132 -18.5t-128.5 -58.5t-110.5 -97t-77 -141t-29 -183zM510 1419h61l117 -202h-43z" />
<glyph unicode="&#xf3;" horiz-adv-x="1277" d="M113 516q0 -159 73 -282t190.5 -186.5t256.5 -63.5q105 0 199 36t165.5 102t113.5 168t42 226q0 120 -42 221.5t-113.5 169.5t-165.5 106t-199 38q-103 0 -197.5 -39t-166 -107.5t-114 -169.5t-42.5 -219zM156 516q0 99 29 183t77 141t110.5 97t128.5 58.5t132 18.5 q67 0 133.5 -19t129 -59.5t110.5 -97.5t77 -140.5t29 -181.5q0 -103 -29 -188t-77 -141t-111 -94.5t-129 -55.5t-133 -17q-66 0 -132 18t-128.5 58t-110.5 96.5t-77 140.5t-29 183zM592 1208l117 203h61l-135 -203h-43z" />
<glyph unicode="&#xf4;" horiz-adv-x="1277" d="M113 516q0 118 42.5 219t114 169.5t166 107.5t197.5 39q105 0 199 -38t165.5 -106t113.5 -169.5t42 -221.5q0 -124 -42 -226t-113.5 -168t-165.5 -102t-199 -36q-139 0 -256.5 63.5t-190.5 186.5t-73 282zM156 516q0 -99 29 -183t77 -140.5t110.5 -96.5t128.5 -58 t132 -18q67 0 133 17t129 55.5t111 94.5t77 141t29 188q0 98 -29 181.5t-77 140.5t-110.5 97.5t-129 59.5t-133.5 19q-66 0 -132 -18.5t-128.5 -58.5t-110.5 -97t-77 -141t-29 -183zM449 1217l167 196h54l168 -196h-47l-148 161l-147 -161h-47z" />
<glyph unicode="&#xf5;" horiz-adv-x="1277" d="M113 516q0 118 42.5 219t114 169.5t166 107.5t197.5 39q105 0 199 -38t165.5 -106t113.5 -169.5t42 -221.5q0 -124 -42 -226t-113.5 -168t-165.5 -102t-199 -36q-139 0 -256.5 63.5t-190.5 186.5t-73 282zM156 516q0 -99 29 -183t77 -140.5t110.5 -96.5t128.5 -58 t132 -18q67 0 133 17t129 55.5t111 94.5t77 141t29 188q0 98 -29 181.5t-77 140.5t-110.5 97.5t-129 59.5t-133.5 19q-66 0 -132 -18.5t-128.5 -58.5t-110.5 -97t-77 -141t-29 -183zM436 1317q33 76 117 76q33 0 97 -38t95 -38q53 0 91 55l22 -16q-47 -78 -117 -78 q-35 0 -97.5 38t-92.5 38q-57 0 -90 -51z" />
<glyph unicode="&#xf6;" horiz-adv-x="1277" d="M113 516q0 118 42.5 219t114 169.5t166 107.5t197.5 39q105 0 199 -38t165.5 -106t113.5 -169.5t42 -221.5q0 -124 -42 -226t-113.5 -168t-165.5 -102t-199 -36q-139 0 -256.5 63.5t-190.5 186.5t-73 282zM156 516q0 -99 29 -183t77 -140.5t110.5 -96.5t128.5 -58 t132 -18q67 0 133 17t129 55.5t111 94.5t77 141t29 188q0 98 -29 181.5t-77 140.5t-110.5 97.5t-129 59.5t-133.5 19q-66 0 -132 -18.5t-128.5 -58.5t-110.5 -97t-77 -141t-29 -183zM438 1307v75h70v-75h-70zM793 1307v75h69v-75h-69z" />
<glyph unicode="&#xf7;" horiz-adv-x="1206" d="M156 651v43h856v-43h-856zM555 276v78h66v-78h-66zM555 997v76h63v-76h-63z" />
<glyph unicode="&#xf8;" horiz-adv-x="1277" d="M113 516q0 118 42.5 219t114 169.5t166 107.5t197.5 39q135 0 254 -64l82 135h45l-96 -155q108 -68 171.5 -185t63.5 -266q0 -124 -42 -226t-113.5 -168t-165.5 -102t-199 -36q-150 0 -271 71l-83 -137h-41l94 156q-102 70 -160.5 183.5t-58.5 258.5zM156 516 q0 -272 196 -407l514 843q-115 62 -233 62q-66 0 -132 -18.5t-128.5 -58.5t-110.5 -97t-77 -141t-29 -183zM383 88q118 -68 250 -68q67 0 133 17t129 55.5t111 94.5t77 141t29 188q0 143 -58.5 248t-156.5 170z" />
<glyph unicode="&#xf9;" horiz-adv-x="1239" d="M199 426v612h43v-610q1 -85 27 -153.5t70.5 -113t106 -74.5t128.5 -43t143 -13q159 0 266 37v970h43v-997q-128 -51 -313 -51q-81 0 -154 15t-139 48.5t-114 83.5t-76.5 124t-30.5 165zM502 1423h61l117 -202h-43z" />
<glyph unicode="&#xfa;" horiz-adv-x="1239" d="M199 426q2 -91 30.5 -165t76.5 -124t114 -83.5t139 -48.5t154 -15q185 0 313 51v997h-43v-970q-107 -37 -266 -37q-76 0 -143 13t-128.5 43t-106 74.5t-70.5 113t-27 153.5v610h-43v-612zM571 1217l117 202h62l-136 -202h-43z" />
<glyph unicode="&#xfb;" horiz-adv-x="1239" d="M199 426v612h43v-610q1 -85 27 -153.5t70.5 -113t106 -74.5t128.5 -43t143 -13q159 0 266 37v970h43v-997q-128 -51 -313 -51q-81 0 -154 15t-139 48.5t-114 83.5t-76.5 124t-30.5 165zM436 1217l168 196h53l168 -196h-47l-147 161l-148 -161h-47z" />
<glyph unicode="&#xfc;" horiz-adv-x="1239" d="M199 426v612h43v-610q1 -85 27 -153.5t70.5 -113t106 -74.5t128.5 -43t143 -13q159 0 266 37v970h43v-997q-128 -51 -313 -51q-81 0 -154 15t-139 48.5t-114 83.5t-76.5 124t-30.5 165zM430 1323v76h70v-76h-70zM784 1323v76h70v-76h-70z" />
<glyph unicode="&#xfd;" horiz-adv-x="1009" d="M66 1038q370 -906 426 -1044l-99 -250q-35 -73 -67 -95.5t-115 -23.5v-37h10q86 0 133.5 29t79.5 117l510 1304h-45l-385 -991l-401 991h-47zM473 1217l117 202h61l-135 -202h-43z" />
<glyph unicode="&#xfe;" horiz-adv-x="1173" d="M213 -412v1846h45v-416q141 33 293 33q108 0 199 -36t149 -97.5t99 -141t50 -167.5t0 -176t-49.5 -167.5t-98.5 -141t-148 -98t-197 -36.5q-145 0 -297 69v-471h-45zM258 102q96 -39 161 -54t136 -15q124 0 221.5 54t148 140t74.5 190t0 208t-74.5 190t-149 139.5 t-224.5 53.5q-66 -1 -93 -2.5t-85 -9t-115 -21.5v-873z" />
<glyph unicode="&#xff;" horiz-adv-x="1009" d="M66 1038h47l401 -991l385 991h45l-510 -1304q-32 -88 -79.5 -117t-133.5 -29h-10v37q83 1 115 23.5t67 95.5l99 250q-56 138 -426 1044zM317 1331v76h70v-76h-70zM672 1331v76h69v-76h-69z" />
<glyph unicode="&#x152;" horiz-adv-x="1867" d="M131 721q0 155 51 289t142.5 231.5t225.5 153t294 55.5q84 0 178 -23h721v-41h-647v-647h639v-41h-641v-657h649v-41h-725q-97 -23 -174 -23q-111 0 -214.5 28.5t-194.5 89t-158.5 147t-106.5 210t-39 269.5zM176 721q0 -140 36.5 -257t99.5 -198.5t148.5 -138t182 -83 t201.5 -26.5q90 0 209 33v1327q-103 33 -209 33q-103 0 -199 -26t-182 -81.5t-149.5 -135.5t-100.5 -195t-37 -252z" />
<glyph unicode="&#x153;" horiz-adv-x="2238" d="M121 516q0 118 42.5 219t114 169.5t166 107.5t197.5 39q173 0 310 -100t186 -269q43 165 171.5 268.5t313.5 104.5q141 1 259.5 -71t181.5 -196.5t48 -267.5h-950q4 -133 63.5 -245t165 -179t234.5 -67q218 0 342 143l31 -29q-90 -90 -169.5 -122.5t-203.5 -32.5 q-178 0 -305 108t-174 271q-43 -180 -182.5 -281.5t-321.5 -101.5q-139 0 -256.5 63.5t-190.5 186.5t-73 282zM164 516q0 -99 29 -183t77 -140.5t110.5 -96.5t128.5 -58t132 -18q67 0 133 17t129 55.5t111 94.5t77 141t29 188v23v2q-3 92 -34 171t-79 133.5t-109.5 93.5 t-126.5 57t-130 18q-66 0 -132 -18.5t-128.5 -58.5t-110.5 -97t-77 -141t-29 -183zM1161 561h914q0 86 -26 159.5t-70.5 126t-102.5 90t-122.5 56t-131.5 19.5q-191 -2 -321.5 -123.5t-139.5 -327.5z" />
<glyph unicode="&#x178;" horiz-adv-x="1140" d="M70 1434h51l452 -813l455 813h49l-483 -854v-580h-43v582zM375 1538v76h69v-76h-69zM729 1538v76h70v-76h-70z" />
<glyph unicode="&#x2c6;" horiz-adv-x="1021" d="M315 1540l168 197h54l168 -197h-48l-147 162l-148 -162h-47z" />
<glyph unicode="&#x2dc;" horiz-adv-x="931" d="M246 1624q33 76 116 76q33 0 97.5 -38t95.5 -38q52 0 90 55l23 -16q-47 -78 -117 -78q-35 0 -98 38t-93 38q-57 0 -90 -51z" />
<glyph unicode="&#x2000;" horiz-adv-x="879" />
<glyph unicode="&#x2001;" horiz-adv-x="1759" />
<glyph unicode="&#x2002;" horiz-adv-x="879" />
<glyph unicode="&#x2003;" horiz-adv-x="1759" />
<glyph unicode="&#x2004;" horiz-adv-x="586" />
<glyph unicode="&#x2005;" horiz-adv-x="439" />
<glyph unicode="&#x2006;" horiz-adv-x="293" />
<glyph unicode="&#x2007;" horiz-adv-x="293" />
<glyph unicode="&#x2008;" horiz-adv-x="219" />
<glyph unicode="&#x2009;" horiz-adv-x="351" />
<glyph unicode="&#x200a;" horiz-adv-x="97" />
<glyph unicode="&#x2010;" horiz-adv-x="917" d="M207 618v46h504v-46h-504z" />
<glyph unicode="&#x2011;" horiz-adv-x="917" d="M207 618v46h504v-46h-504z" />
<glyph unicode="&#x2012;" horiz-adv-x="917" d="M207 618v46h504v-46h-504z" />
<glyph unicode="&#x2013;" horiz-adv-x="1406" d="M215 555v43h979v-43h-979z" />
<glyph unicode="&#x2014;" horiz-adv-x="1755" d="M190 530v88h1371v-88h-1371zM215 555h1321v39h-1321v-39z" />
<glyph unicode="&#x2018;" horiz-adv-x="464" d="M154 1083l122 351h39l-102 -351h-59z" />
<glyph unicode="&#x2019;" horiz-adv-x="436" d="M156 1083l94 351h53l-110 -351h-37z" />
<glyph unicode="&#x201a;" horiz-adv-x="475" d="M113 -229l108 317h55l-124 -317h-39z" />
<glyph unicode="&#x201c;" horiz-adv-x="604" d="M131 1083l123 351h39l-103 -351h-59zM319 1083l123 351h39l-102 -351h-60z" />
<glyph unicode="&#x201d;" horiz-adv-x="581" d="M152 1081l102 351h59l-123 -351h-38zM340 1081l102 351h60l-123 -351h-39z" />
<glyph unicode="&#x201e;" horiz-adv-x="669" d="M113 -229l108 317h55l-124 -317h-39zM338 -229l108 317h56l-125 -317h-39z" />
<glyph unicode="&#x2022;" horiz-adv-x="733" d="M178 596q0 80 54 136t133 56q76 0 130 -56t54 -136t-54 -136.5t-130 -56.5q-79 0 -133 56.5t-54 136.5z" />
<glyph unicode="&#x2026;" horiz-adv-x="1124" d="M193 0v92h69v-92h-69zM537 0v92h69v-92h-69zM887 0v92h69v-92h-69z" />
<glyph unicode="&#x202f;" horiz-adv-x="351" />
<glyph unicode="&#x2039;" horiz-adv-x="698" d="M158 578l317 401h55l-321 -401l321 -396h-55z" />
<glyph unicode="&#x203a;" horiz-adv-x="708" d="M166 182l321 396l-321 401h55l318 -401l-318 -396h-55z" />
<glyph unicode="&#x205f;" horiz-adv-x="439" />
<glyph unicode="&#x20ac;" horiz-adv-x="1302" d="M127 592l10 39h111q-4 50 -3 113t7 92h-119l10 36h113q12 115 61 214.5t122 169t168 116t196 62.5t209 0t205 -64l-17 -37q-93 45 -195 59.5t-196.5 0t-183 -58t-156.5 -108t-114 -156.5t-58 -198h625l-9 -36h-620q-15 -101 -4 -205h581l-10 -39h-565 q44 -254 208.5 -409.5t414.5 -155.5q175 0 321 86l14 -35q-165 -92 -335 -92q-138 0 -255.5 48t-200 131.5t-136.5 192.5t-74 234h-125z" />
<glyph unicode="&#x2122;" horiz-adv-x="1691" d="M109 1399v35h479v-35h-221v-787h-43v787h-215zM737 612v822h76l322 -590l321 590h78v-822h-43v795h-2l-332 -608h-45l-332 608h-2v-795h-41z" />
<glyph unicode="&#x25fc;" horiz-adv-x="1034" d="M0 0v1034h1034v-1034h-1034z" />
</font>
</defs>
</svg>
