<svg xmlns:svg="http://www.w3.org/2000/svg" xmlns="http://www.w3.org/2000/svg" width="236" height="236" version="1"><title>facebook web</title><defs><linearGradient><stop offset="0" style="stop-color:rgb(255, 255, 255);stop-opacity:1"/><stop offset="1" style="stop-color:rgb(255, 255, 255);stop-opacity:0"/></linearGradient><linearGradient gradientUnits="userSpaceOnUse" gradientTransform="matrix(-0.5914584,0,0,0.5914584,210.02161,142.23241)" x1="-344.2" y1="274.7" x2="-395.8" y2="425.4"/></defs><g transform="translate(-383.64203,-328.34399)"><rect transform="scale(-1,1)" ry="35.5" rx="35.5" y="328.3" x="-619.6" height="236" width="236" fill="#000"/><g transform="matrix(1.7982054,0,0,1.8129643,376.63343,326.35613)"><path d="m93.4 117-21.2 0 0-51.2-10.6 0 0-17.7 10.6 0 0-10.6c0-14.4 6-23 22.9-23l14.1 0 0 17.7-8.8 0c-6.6 0-7 2.5-7 7.1l0 8.8 16 0-1.9 17.7-14.1 0 0 51.2z" fill="#fff"/></g></g></svg>