<svg xmlns="http://www.w3.org/2000/svg" xmlns:xlink="http://www.w3.org/1999/xlink" version="1.1" id="Icons" x="0" y="0" width="100" height="100" viewBox="0" xml:space="preserve" enable-background="new 0 0 100 100">
  <path id="SoundCloud" d="M5 59.02c0 3.04 1.39 5.76 3.57 7.6V51.43C6.39 53.26 5 55.98 5 59.02M12.34 49.43v19.18C13.23 68.86 14.17 69 15.14 69h0.97V49.09c-0.32-0.03-0.65-0.04-0.98-0.04C14.17 49.05 13.23 49.18 12.34 49.43M20.68 50.68c-0.26-0.16-0.51-0.32-0.79-0.46V69h3.77V43.88C22.16 45.84 21.11 48.16 20.68 50.68M27.44 40.35V69h3.77V38.49C29.86 38.95 28.6 39.58 27.44 40.35M34.98 37.71V69h3.77V37.83c-0.77-0.11-1.57-0.17-2.38-0.17C35.91 37.65 35.44 37.67 34.98 37.71M44.61 39.92c-1.23-0.73-2.56-1.31-3.97-1.69V69h5.66V37.65C45.69 38.36 45.12 39.12 44.61 39.92M48.2 35.75V69h35.85v-0.04C91.6 68.47 95 63.79 95 58.08c0-6.03-4.56-10.92-10.7-10.92 -1.58 0-2.87 0.33-4.24 0.91C79.07 38.48 70.94 31 60.93 31 56.04 31 51.59 32.79 48.2 35.75"/>
</svg>
