<svg xmlns="http://www.w3.org/2000/svg" version="1.1" x="0" y="0" width="100" height="100" viewBox="0" xml:space="preserve" enable-background="new 0 0 100 100"><path d="M84.8 46.6c5.1-0.4 8.5-2.7 9.8-5.8 -1.8 1.1-7.5 2.3-10.6 1.2 -0.2-0.7-0.3-1.4-0.5-2.1 -2.4-8.7-10.5-15.8-19.1-14.9 0.7-0.3 1.4-0.5 2.1-0.8 0.9-0.3 6.5-1.2 5.6-3.2 -0.7-1.7-7.5 1.3-8.7 1.7 1.7-0.6 4.4-1.7 4.7-3.6 -2.6 0.4-5.1 1.6-7 3.3 0.7-0.8 1.2-1.7 1.3-2.7C55.6 24 51.6 32.9 48.3 41.4c-2.5-2.5-4.8-4.4-6.8-5.5 -5.7-3-12.4-6.2-23.1-10.2 -0.3 3.5 1.7 8.2 7.7 11.3 -1.3-0.2-3.7 0.2-5.5 0.7 0.8 4 3.3 7.4 10.1 9 -3.1 0.2-4.7 0.9-6.2 2.4 1.4 2.8 4.9 6.1 11.1 5.4 -6.9 3-2.8 8.5 2.8 7.7C28.8 72.1 13.7 71.4 5 63.1c22.7 30.9 71.9 18.3 79.3-11.5 5.5 0 8.7-1.9 10.7-4.1C91.8 48.1 87.2 47.6 84.8 46.6z"/></svg>