<svg xmlns="http://www.w3.org/2000/svg" xmlns:xlink="http://www.w3.org/1999/xlink" version="1.1" id="Icons" x="0" y="0" width="100" height="100" viewBox="0" xml:space="preserve" enable-background="new 0 0 100 100">
  <path id="YouTube" d="M75.94 70.83H71l0.02-2.87c0-1.27 1.05-2.32 2.33-2.32h0.32c1.28 0 2.33 1.04 2.33 2.32L75.94 70.83zM57.41 64.68c-1.25 0-2.28 0.84-2.28 1.87V80.51c0 1.03 1.02 1.87 2.28 1.87 1.26 0 2.28-0.84 2.28-1.87V66.56C59.7 65.53 58.67 64.68 57.41 64.68zM87.5 56.88v26.54C87.5 89.79 81.98 95 75.23 95H24.77C18.02 95 12.5 89.79 12.5 83.42V56.88c0-6.37 5.52-11.58 12.27-11.58H75.23C81.98 45.3 87.5 50.51 87.5 56.88zM28.14 86.31l0-27.96 6.26 0v-4.14l-16.67-0.02v4.07l5.21 0.02v28.04H28.14zM46.89 62.51h-5.21v14.93c0 2.16 0.13 3.24-0.01 3.62 -0.42 1.16-2.33 2.39-3.07 0.13 -0.13-0.4-0.01-1.59-0.02-3.64l-0.02-15.03h-5.19l0.02 14.8c0 2.27-0.05 3.96 0.02 4.73 0.13 1.36 0.08 2.94 1.34 3.84 2.35 1.69 6.84-0.25 7.97-2.67l-0.01 3.08 4.19 0.01V62.51zM63.57 79.61L63.56 67.18c0-4.74-3.55-7.57-8.36-3.74l0.02-9.24 -5.21 0.01 -0.02 31.89 4.28-0.06 0.39-1.99C60.14 89.07 63.58 85.63 63.57 79.61zM79.89 77.96l-3.91 0.02c0 0.16-0.01 0.33-0.01 0.53v2.18c0 1.17-0.96 2.12-2.14 2.12h-0.77c-1.17 0-2.14-0.95-2.14-2.12v-0.24 -2.4 -3.1h8.95v-3.37c0-2.46-0.06-4.92-0.27-6.33 -0.64-4.45-6.89-5.16-10.05-2.88 -0.99 0.71-1.75 1.67-2.19 2.95 -0.44 1.28-0.66 3.03-0.66 5.25v7.41C66.71 90.3 81.68 88.56 79.89 77.96zM59.83 37.73c0.27 0.65 0.69 1.18 1.25 1.58 0.56 0.39 1.28 0.59 2.13 0.59 0.75 0 1.42-0.2 2-0.62 0.58-0.42 1.07-1.04 1.46-1.87l-0.1 2.05h5.81V14.74h-4.58v19.24c0 1.04-0.86 1.9-1.91 1.9 -1.04 0-1.9-0.85-1.9-1.89V14.74h-4.78v16.67c0 2.12 0.04 3.54 0.1 4.26C59.4 36.39 59.56 37.07 59.83 37.73zM42.22 23.77c0-2.37 0.2-4.23 0.59-5.56 0.4-1.33 1.11-2.4 2.14-3.21 1.03-0.81 2.34-1.22 3.94-1.22 1.35 0 2.5 0.26 3.46 0.78 0.97 0.52 1.71 1.2 2.23 2.03 0.53 0.84 0.89 1.7 1.08 2.57 0.2 0.89 0.29 2.24 0.29 4.05v6.25c0 2.29-0.09 3.98-0.27 5.05 -0.18 1.07-0.56 2.07-1.14 3 -0.58 0.92-1.33 1.62-2.24 2.06 -0.92 0.45-1.97 0.66-3.15 0.66 -1.32 0-2.44-0.18-3.36-0.56 -0.92-0.38-1.64-0.95-2.14-1.71 -0.51-0.76-0.87-1.69-1.09-2.77 -0.22-1.08-0.32-2.71-0.32-4.87V23.77zM46.77 33.59c0 1.4 1.04 2.54 2.31 2.54 1.27 0 2.31-1.14 2.31-2.54V20.43c0-1.4-1.04-2.54-2.31-2.54 -1.27 0-2.31 1.14-2.31 2.54V33.59zM30.68 40.24h5.48l0.01-18.96 6.48-16.24h-6l-3.44 12.06L29.72 5h-5.94l6.89 16.28L30.68 40.24z"/>
</svg>
